Simulation
nRows=46
nColumns=15
endheader
time  TH_x TH_y TH_z SC_y  SC_z  SC_x  AC_y  AC_z  AC_x  GH_y  GH_z  GH_yy  EL_x  PS_y
0.0  0.000000  0.000000  0.000000  -21.5523333493736  7.489196721974313  16.39862680480095  56.725642122225864  10.843787732806547  3.5716451875251645  40.494984380885505  58.706431313593804  -42.56236639044493  21.33729034912011  120.000000
0.04052287581699346  0.000000  0.000000  0.000000  -21.54181016078197  7.565214803526338  16.802064869589604  56.800695664777294  11.041283537207049  3.9788175135392567  40.09605362202969  59.2286137905819  -43.721361528943156  23.40774072480303  120.000000
0.08104575163398692  0.000000  0.000000  0.000000  -21.53722642308489  7.531102387815452  16.796920938444583  56.93427328619207  11.072893979207036  4.089364156421738  39.75322046272035  59.34318600754581  -44.832815295726355  25.267948202185387  120.000000
0.12156862745098038  0.000000  0.000000  0.000000  -21.480301953244  7.375815307491345  16.537944315096283  57.07449214337973  11.088828458327917  4.018635165951917  39.47352108208665  59.157065762493616  -45.85132097344424  26.838580790310285  120.000000
0.16209150326797384  0.000000  0.000000  0.000000  -21.404535802444027  7.13808104080021  16.136813088375458  57.20981564282799  11.149597579869912  3.8653195200238852  39.28853678744502  58.78415616257968  -46.74943838715255  28.10578896367822  120.000000
0.2026143790849673  0.000000  0.000000  0.000000  -21.31769391741722  6.8592928970567915  15.680447482260433  57.323662621781786  11.276818841005769  3.6957096612588365  39.195561175265354  58.3304669717912  -47.512546365717135  29.07743264153825  120.000000
0.24313725490196075  0.000000  0.000000  0.000000  -21.239742967145958  6.59014816380076  15.22640679780674  57.407979565154086  11.456893956590212  3.5556791711686953  39.1846221544008  57.879923029073225  -48.133839832987334  29.777702581781348  120.000000
0.28366013071895424  0.000000  0.000000  0.000000  -21.180222880634044  6.362350895248058  14.805125188329907  57.45993144863128  11.66693678374265  3.4650929212806103  39.23379722465671  57.4902461143894  -48.60863071501858  30.236497537064583  120.000000
0.32418300653594767  0.000000  0.000000  0.000000  -21.135688627595503  6.193501341305423  14.430571650775526  57.477408562515386  11.884966127582759  3.429521642775801  39.31811673508123  57.190509948271426  -48.93305094869799  30.47764516893766  120.000000
0.3647058823529411  0.000000  0.000000  0.000000  -21.099350688787876  6.0883256007533415  14.107086922732025  57.46175664658383  12.094535771148848  3.4463741768672347  39.41590686290233  56.99052901596417  -49.102057668787225  30.521037606966765  120.000000
0.4052287581699346  0.000000  0.000000  0.000000  -21.062909502923358  6.042433340527301  13.835511667130842  57.41598605474041  12.287092179507361  3.508141852362923  39.509451165994875  56.88764232725892  -49.11120403379223  30.3855124770157  120.000000
0.4457516339869281  0.000000  0.000000  0.000000  -21.021085950010274  6.047773403113936  13.616880393814386  57.34439635111693  12.459452431448545  3.607057006503487  39.58586692076895  56.873456067258864  -48.955637344247535  30.087962544886445  120.000000
0.4862745098039215  0.000000  0.000000  0.000000  -20.972409434498772  6.094933388598009  13.453991912963328  57.25266602055767  12.611926661057577  3.7354377780072485  39.63559386770778  56.938452543122196  -48.63202875341096  29.645918136851925  120.000000
0.5267973856209149  0.000000  0.000000  0.000000  -20.919098910748794  6.1752413965317565  13.352345397461175  57.14723911782176  12.7454444258155  3.886979885239759  39.651474682826496  57.074250863330896  -48.13747225228535  29.077017203858745  120.000000
0.5673202614379085  0.000000  0.000000  0.000000  -20.865951568676003  6.281703159781017  13.318721588856718  57.03528223705599  12.860515756473259  4.05696987092628  39.62814179949295  57.2748649516095  -47.470819853431024  28.399220784720185  120.000000
0.6078431372549019  0.000000  0.000000  0.000000  -20.819125429812754  6.409318858537239  13.359266701249012  56.924023982567604  12.957012655556554  4.243327539028514  39.561969885994486  57.53658461290254  -46.6320484918711  27.630600934992078  120.000000
0.6483660130718953  0.000000  0.000000  0.000000  -20.784880206411454  6.5554036750464135  13.47849778367807  56.820854224538145  13.033524129814028  4.446286423826815  39.451562244424224  57.85796726314627  -45.62328301500982  26.78887354606744  120.000000
0.6888888888888888  0.000000  0.000000  0.000000  -20.76861428216151  6.71945174592043  13.67883447806738  56.733062905617224  13.086868383932796  4.668452615788464  39.29831641659364  58.23916806366537  -44.448958862733164  25.891125923269236  120.000000
0.7294117647058822  0.000000  0.000000  0.000000  -20.774279657616066  6.903112336101985  13.959900267979442  56.66796044317384  13.112347665866876  4.914490998085362  39.10693551700709  58.68162372783932  -43.116603152088196  24.95349960397744  120.000000
0.7699346405228757  0.000000  0.000000  0.000000  -20.804324865939506  7.109900735675641  14.318459494629638  56.63252799474048  13.104434364644181  5.191145610490434  38.88555621809373  59.186980190529816  -41.63646147108538  23.99133298095551  120.000000
0.8104575163398692  0.000000  0.000000  0.000000  -20.85988941307412  7.344658160042718  14.748586155529905  56.63339351399778  13.057673700319496  5.506518895367405  38.64544688927429  59.75648516970857  -40.02149368760384  23.019538240380307  120.000000
0.8509803921568626  0.000000  0.000000  0.000000  -20.941298175539565  7.612871817903673  15.242307171343759  56.67655166500174  12.96766281382504  5.8696461015051655  38.40046950428943  60.38985846174636  -38.287434071756664  22.052887178474677  120.000000
0.8915032679738562  0.000000  0.000000  0.000000  -21.048314349406414  7.9199299958638765  15.790014568055211  56.76714574692626  12.83198755253961  6.289557844326233  38.16624071737594  61.08467634032981  -36.45328957033305  21.105930452882046  120.000000
0.9320261437908496  0.000000  0.000000  0.000000  -21.180597965757062  8.270145964408774  16.381112835581394  56.9089935341496  12.651279171510268  6.774353886846071  37.95911665266813  61.8351196496658  -34.541810495732115  20.192774317512143  120.000000
0.972549019607843  0.000000  0.000000  0.000000  -21.338294874144722  8.665590140475631  17.004552124892832  57.104199190405325  12.429865681709916  7.329791760259751  37.795209237753845  62.63139772863269  -32.58052154392956  19.32678843338875  120.000000
1.0130718954248366  0.000000  0.000000  0.000000  -21.522593943464464  9.104998748356532  17.649710866164924  57.35258013384707  12.176137290239517  7.957914532011909  37.689432321935456  63.45922322158234  -30.602437793957044  18.520335750282907  120.000000
1.0535947712418299  0.000000  0.000000  0.000000  -21.73588284212206  9.582896426027013  18.307097339731186  57.65134698271305  11.902163290740411  8.655933664549064  37.654711118361966  64.30029636116345  -28.646066452925762  17.78468906836903  120.000000
1.0941176470588234  0.000000  0.000000  0.000000  -21.981330202367754  10.089394309363149  18.96904513265597  57.99511839358318  11.622692009466196  9.41574677139072  37.70107489690356  65.13315287430454  -26.75411266315229  17.13029864806807  120.000000
1.134640522875817  0.000000  0.000000  0.000000  -22.26189447566195  10.610664768872608  19.629921568484065  58.376271305536584  11.353508047440018  10.22417636641092  37.83496849765558  65.93478350039462  -24.971028243459248  16.56719486052769  120.000000
1.1751633986928103  0.000000  0.000000  0.000000  -22.579433166006755  11.129724286565686  20.285749358455796  58.78563301985313  11.110149883507036  11.063915536364847  38.0587642830679  66.6823178179112  -23.340378507539185  16.10537785324815  120.000000
1.2156862745098038  0.000000  0.000000  0.000000  -22.933967901047705  11.627826256760054  20.933087483837724  59.21293998571026  10.906583558968173  11.91513066061537  38.370695190860154  67.3552461499817  -21.90146573528156  15.75471819827187  120.000000
1.2562091503267971  0.000000  0.000000  0.000000  -23.323095085193913  12.086375971784182  21.568302880015754  59.647409011487994  10.753928355668767  12.757134459891368  38.764804147457426  67.93724275994323  -20.685822063267658  15.523721746099861  120.000000
1.2967320261437907  0.000000  0.000000  0.000000  -23.74142161954607  12.48900583078774  22.186936464611485  60.078577471435594  10.658824033318801  13.570028714136315  39.23116670945497  68.41816720011963  -19.713159518584877  15.41669340661009  120.000000
1.3372549019607842  0.000000  0.000000  0.000000  -24.180340767386454  12.823730164822411  22.78326293361928  60.497422189550505  10.62245988316104  14.336246868956044  39.75624822934121  68.79514219280722  -18.988103005469785  15.430158032587928  120.000000
1.3777777777777775  0.000000  0.000000  0.000000  -24.628110895850003  13.084484016232828  23.34991476284311  60.897223261463665  10.64010283618928  15.041721918389753  40.32342692609559  69.07299129238237  -18.49877161739753  15.550511291795955  120.000000
1.418300653594771  0.000000  0.000000  0.000000  -25.07048935425046  13.271438586152108  23.878233470061115  61.2740603430754  10.70201562712518  15.676111912848798  40.91340720586295  69.26300018577912  -18.218822952051415  15.754704991432785  120.000000
1.4588235294117644  0.000000  0.000000  0.000000  -25.49170337630834  13.390257704503716  24.35889589035034  61.62647758881217  10.794782104137148  16.23248023126528  41.50479458139853  69.38109347683724  -18.11148822335863  16.013493502876806  120.000000
1.499346405228758  0.000000  0.000000  0.000000  -25.875847157536562  13.450663644838015  24.782953254556993  61.95509613829727  10.903175741276582  16.706664114063305  42.07505224546928  69.44555179198902  -18.13466343026439  16.29478680063347  120.000000
1.5398692810457515  0.000000  0.000000  0.000000  -26.208223671142857  13.46490398126045  25.142844659183492  62.261957406061605  11.011495468695001  17.096960649702044  42.60210047510091  69.47529273926868  -18.245325554015892  16.566119641198554  120.000000
1.5803921568627448  0.000000  0.000000  0.000000  -26.476854787242164  13.446274123765368  25.433819351830962  62.5499815035568  11.10491359230252  17.403934372980927  43.06637655127438  69.48801522814173  -18.403507781817087  16.797075432858655  120.000000
1.6209150326797384  0.000000  0.000000  0.000000  -26.674075104574584  13.407445972746787  25.654877890147144  62.82225198058974  11.170844558241098  17.63049113732859  43.45322660563924  69.49871014960624  -18.575186181779035  16.96288728473305  120.000000
1.661437908496732  0.000000  0.000000  0.000000  -26.79798432456018  13.359202109623213  25.80926592781605  63.08095540129681  11.200804063156017  17.782228465962746  43.75485774899932  69.5180337940696  -18.73460641983065  17.049008840611442  120.000000
1.7019607843137252  0.000000  0.000000  0.000000  -26.853225540165262  13.309688018273643  25.90458214762022  63.32641144271498  11.19137193310379  17.86775058493648  43.97124587927071  69.55162001124782  -18.864909681446086  17.054124900647906  120.000000
1.7424836601307188  0.000000  0.000000  0.000000  -26.850547632413665  13.264204345656328  25.95242689514478  63.55692677800367  11.14425731552007  17.898512442358022  44.109907898895884  69.60039490477045  -18.95752326121247  16.9890909062017  120.000000
1.7830065359477123  0.000000  0.000000  0.000000  -26.804990544311757  13.225939184261687  25.967018814180552  63.769169061735376  11.065450234356334  17.888314361595633  44.18448325169082  69.66189496466218  -19.010309711993838  16.872719606585594  120.000000
1.8235294117647056  0.000000  0.000000  0.000000  -26.733827292754498  13.196713599749298  25.96357598354939  63.95885929824636  10.964273183062767  17.852229674418034  44.212587340325  69.73134777835517  -19.0256189712535  16.727466281567544  120.000000
